<svg width="48" height="60" viewBox="0 0 48 60" fill="none" xmlns="http://www.w3.org/2000/svg">
<path d="M0 10.7038V54.8941H42.5435V0H10.1188L0 10.7038ZM9.65289 10.1835H2.83251L9.65289 2.99186V10.1835ZM1.71441 11.8745H11.3673V1.69105H40.8664V53.1845H1.71441V11.8745Z" fill="#C8AF64"/>
<path d="M37.1778 21.6123H5.40527V23.3034H37.1778V21.6123Z" fill="#C8AF64"/>
<path d="M18.2634 15.9617H5.40527V17.6527H18.2634V15.9617Z" fill="#C8AF64"/>
<path d="M37.1778 27.2609H5.40527V28.9519H37.1778V27.2609Z" fill="#C8AF64"/>
<path d="M37.1778 32.9298H5.40527V34.6209H37.1778V32.9298Z" fill="#C8AF64"/>
<path d="M37.1778 38.5782H5.40527V40.2693H37.1778V38.5782Z" fill="#C8AF64"/>
<path d="M37.1778 44.2451H5.40527V45.9362H37.1778V44.2451Z" fill="#C8AF64"/>
<path d="M43.9911 55.108L38.4601 58.8726L32.9338 55.1112C32.9331 55.1107 32.9324 55.1102 32.9317 55.1097C32.1893 54.5977 31.4771 53.7539 30.9498 52.765C30.4215 51.7743 30.124 50.7232 30.124 49.8395V42.1366L38.4692 38.0623L46.7962 42.1363V49.8395C46.7962 50.7238 46.4984 51.7798 45.97 52.7727C45.4418 53.7654 44.7302 54.6065 43.9923 55.1072L43.9911 55.108Z" fill="white" stroke="#C8AF64" stroke-width="2" stroke-miterlimit="10"/>
<path d="M37.2195 51.8963C37.2927 51.9704 37.3805 52 37.4829 52C37.5854 52 37.6732 51.9704 37.7463 51.8963L42.8976 46.6815C42.9707 46.6074 43 46.5185 43 46.4148C43 46.3111 42.9561 46.2222 42.8976 46.1481L41.8732 45.1111C41.7268 44.963 41.5073 44.963 41.361 45.1111L37.4976 49.0222L35.6537 47.1704C35.5073 47.0222 35.2878 47.0222 35.1415 47.1704L34.1024 48.2074C34.0293 48.2815 34 48.3704 34 48.4741C34 48.5778 34.0439 48.6667 34.1024 48.7259L37.2195 51.8963Z" fill="#C8AF64"/>
</svg>
