<svg width="61" height="60" viewBox="0 0 61 60" fill="none" xmlns="http://www.w3.org/2000/svg">
<path d="M33.4702 14.4968L34.3009 13.94L33.4702 14.4968C33.9181 15.165 34.157 15.9504 34.1572 16.7537C34.1558 17.8306 33.7263 18.8636 32.9618 19.6261C32.1973 20.3886 31.1601 20.8182 30.0777 20.8197C29.2705 20.8196 28.4816 20.5809 27.8109 20.1339C27.1401 19.6869 26.6176 19.0519 26.3092 18.3095C26.0008 17.567 25.9201 16.7502 26.0773 15.9622C26.2344 15.1742 26.6224 14.45 27.1926 13.8813C27.7628 13.3125 28.4897 12.9249 29.2815 12.7677C30.0732 12.6106 30.8939 12.6912 31.6396 12.9991C32.3853 13.307 33.0222 13.8284 33.4702 14.4968Z" stroke="#C8AF64" stroke-width="2"/>
<path d="M60.1091 58.8019L52.8892 39.9262C52.8252 39.7591 52.7118 39.6153 52.564 39.5138C52.4163 39.4124 52.2411 39.358 52.0618 39.3579H38.3974C38.4809 39.2222 38.5639 39.0905 38.6474 38.9542C43.9051 30.2734 46.551 22.6798 46.513 16.3872C46.5137 12.0418 44.7835 7.87405 41.7028 4.80085C38.6222 1.72766 34.4436 0.000736431 30.0861 2.35479e-07C25.7287 -0.00073596 21.5495 1.72477 18.4678 4.79693C15.3861 7.86909 13.6545 12.0362 13.6537 16.3817C13.6158 22.6798 16.2616 30.2744 21.5193 38.9542C21.6028 39.092 21.6858 39.2237 21.7693 39.3579H8.10497C7.92557 39.358 7.75043 39.4124 7.60268 39.5138C7.45493 39.6153 7.34155 39.7591 7.27752 39.9262L0.0586753 58.8019C0.00723867 58.9356 -0.0107731 59.0798 0.00619629 59.222C0.0231657 59.3643 0.0746058 59.5002 0.156072 59.6182C0.237539 59.7361 0.346581 59.8326 0.473778 59.8991C0.600975 59.9656 0.742502 60.0002 0.886129 60H59.2816C59.4252 60.0002 59.5668 59.9656 59.694 59.8991C59.8212 59.8326 59.9302 59.7361 60.0117 59.6182C60.0931 59.5002 60.1446 59.3643 60.1615 59.222C60.1785 59.0798 60.1605 58.9356 60.1091 58.8019ZM15.4255 16.3832C15.4259 14.4635 15.8053 12.5627 16.5423 10.7893C17.2793 9.01589 18.3593 7.4046 19.7206 6.04743C21.082 4.69025 22.6981 3.61378 24.4767 2.87946C26.2553 2.14514 28.1614 1.76737 30.0864 1.7677C32.0114 1.76803 33.9174 2.14646 35.6957 2.88139C37.474 3.61632 39.0897 4.69335 40.4507 6.051C41.8116 7.40864 42.891 9.0203 43.6274 10.794C44.3637 12.5676 44.7425 14.4686 44.7422 16.3882C44.8181 28.934 33.0566 44.4074 30.0839 48.1179C27.1111 44.4089 15.3491 28.9395 15.4255 16.3832ZM29.4093 50.0863C29.4924 50.1837 29.5958 50.262 29.7123 50.3157C29.8287 50.3694 29.9555 50.3972 30.0839 50.3972C30.2122 50.3972 30.339 50.3694 30.4555 50.3157C30.5719 50.262 30.6753 50.1837 30.7585 50.0863C33.11 47.2296 35.2899 44.2367 37.287 41.1234H51.4509L52.5845 44.0885L24.9061 53.9053L15.0404 41.1219H22.8797C24.8771 44.2358 27.0574 47.2291 29.4093 50.0863ZM24.8752 55.7893H24.8803L41.3924 49.9349L47.7969 58.2336H17.9884L24.8752 55.7893ZM8.71582 41.1219H12.805L23.1505 54.5276L12.7033 58.2331H2.17159L8.71582 41.1219ZM50.0344 58.2336L43.147 49.3095L53.2182 45.7378L57.9972 58.2336H50.0344Z" fill="#C8AF64"/>
</svg>
