<svg width="63" height="60" viewBox="0 0 63 60" fill="none" xmlns="http://www.w3.org/2000/svg">
<path d="M45.996 0V2.00163H49.5843L28.9944 22.5915L18.9984 12.5834L6.29297 25.2888L7.69655 26.7046L18.9984 15.415L28.9944 25.4109L51 3.41741V6.99349H53.0017V0H45.996Z" fill="#C8AF64"/>
<path d="M60 57.9992V14H50.0041V57.9992H48.0024V20.0049H38.0065V58.0114H36.0049V34.0041H25.9967V57.9992H23.9951V27.9992H13.9992V57.9992H11.9976V44H2.00163V57.9992H0V60.0008H62.0016V57.9992H60ZM10.0081 57.9992H4.00325V46.0016H10.0081V57.9992ZM22.0057 57.9992H16.0008V30.0008H22.0057V57.9992ZM34.0033 58.0114H27.9984V36.0057H34.0033V58.0114ZM46.0008 58.0114H39.9959V22.0065H46.0008V58.0114ZM58.0106 57.9992H52.0057V16.0016H58.0106V57.9992Z" fill="#C8AF64"/>
</svg>
