<svg width="60" height="60" viewBox="0 0 60 60" fill="none" xmlns="http://www.w3.org/2000/svg">
<path d="M58.9761 25.4569H1.02121C0.793877 25.4569 0.575859 25.3666 0.415114 25.2059C0.254368 25.0451 0.164063 24.8271 0.164063 24.5998V18.3478C0.16406 18.2002 0.20217 18.0551 0.2747 17.9265C0.347231 17.798 0.451725 17.6904 0.578063 17.614L29.5495 0.123182C29.6831 0.0425915 29.8362 0 29.9922 0C30.1483 0 30.3013 0.0425915 30.4349 0.123182L59.4184 17.614C59.5447 17.6904 59.6492 17.798 59.7217 17.9265C59.7943 18.0551 59.8324 18.2002 59.8324 18.3478V24.5998C59.8324 24.8269 59.7422 25.0448 59.5816 25.2056C59.4211 25.3663 59.2033 25.4567 58.9761 25.4569ZM1.87921 23.7426H58.1189V18.8312L29.9935 1.85804L1.87921 18.8295V23.7426Z" fill="#C8AF64"/>
<path d="M30.0016 19.1262C28.9876 19.1262 27.9965 18.8255 27.1534 18.2622C26.3103 17.6989 25.6533 16.8982 25.2652 15.9615C24.8772 15.0247 24.7757 13.9939 24.9735 12.9995C25.1713 12.005 25.6596 11.0916 26.3765 10.3746C27.0935 9.65762 28.007 9.16936 29.0014 8.97155C29.9959 8.77374 31.0267 8.87527 31.9634 9.26329C32.9002 9.6513 33.7009 10.3084 34.2642 11.1515C34.8275 11.9945 35.1282 12.9857 35.1282 13.9996C35.1266 15.3588 34.5859 16.6618 33.6249 17.6229C32.6638 18.584 31.3607 19.1246 30.0016 19.1262ZM30.0016 10.5865C29.3267 10.5865 28.667 10.7866 28.1058 11.1616C27.5447 11.5365 27.1073 12.0694 26.849 12.6929C26.5908 13.3165 26.5232 14.0026 26.6549 14.6645C26.7865 15.3264 27.1115 15.9344 27.5887 16.4116C28.0659 16.8888 28.674 17.2138 29.3359 17.3455C29.9978 17.4772 30.6839 17.4096 31.3074 17.1513C31.9309 16.893 32.4638 16.4557 32.8388 15.8945C33.2137 15.3334 33.4139 14.6737 33.4139 13.9988C33.4127 13.0941 33.0529 12.2268 32.4132 11.5872C31.7735 10.9475 30.9062 10.5876 30.0016 10.5865Z" fill="#C8AF64"/>
<path d="M53.9723 30.873H44.8514C44.3605 30.8723 43.8898 30.6769 43.5427 30.3297C43.1956 29.9824 43.0005 29.5117 43 29.0207V24.6013C43 24.374 43.0903 24.1559 43.2511 23.9952C43.4118 23.8344 43.6298 23.7441 43.8571 23.7441H54.9666C55.1939 23.7441 55.4119 23.8344 55.5726 23.9952C55.7334 24.1559 55.8237 24.374 55.8237 24.6013V29.0233C55.8226 29.5138 55.6271 29.9839 55.2801 30.3306C54.9331 30.6773 54.4628 30.8723 53.9723 30.873ZM44.7151 25.4559V29.0207C44.7151 29.0572 44.7296 29.0922 44.7553 29.118C44.781 29.1439 44.8158 29.1585 44.8523 29.1587H53.9723C54.0087 29.1585 54.0436 29.1439 54.0693 29.118C54.095 29.0922 54.1094 29.0572 54.1094 29.0207V25.4584L44.7151 25.4559Z" fill="#C8AF64"/>
<path d="M53.1996 48.1848H45.6345C45.4072 48.1848 45.1891 48.0945 45.0284 47.9338C44.8676 47.773 44.7773 47.555 44.7773 47.3277V30.0134C44.7773 29.7861 44.8676 29.568 45.0284 29.4073C45.1891 29.2466 45.4072 29.1562 45.6345 29.1562H53.1996C53.427 29.1562 53.645 29.2466 53.8057 29.4073C53.9665 29.568 54.0568 29.7861 54.0568 30.0134V47.3277C54.0568 47.555 53.9665 47.773 53.8057 47.9338C53.645 48.0945 53.427 48.1848 53.1996 48.1848ZM46.4916 46.4705H52.3425V30.8705H46.4916V46.4705Z" fill="#C8AF64"/>
<path d="M54.9666 53.6021H43.8571C43.6298 53.6021 43.4118 53.5118 43.2511 53.3511C43.0903 53.1903 43 52.9723 43 52.745V48.323C43.0005 47.832 43.1956 47.3613 43.5427 47.014C43.8898 46.6668 44.3605 46.4714 44.8514 46.4707H53.9723C54.4632 46.4714 54.9339 46.6668 55.281 47.014C55.6281 47.3613 55.8232 47.832 55.8237 48.323V52.745C55.8237 52.9723 55.7334 53.1903 55.5726 53.3511C55.4119 53.5118 55.1939 53.6021 54.9666 53.6021ZM44.7143 51.8878H54.1094V48.323C54.1094 48.2865 54.095 48.2516 54.0693 48.2257C54.0436 48.1999 54.0087 48.1852 53.9723 48.185H44.8514C44.815 48.1852 44.7801 48.1999 44.7544 48.2257C44.7287 48.2516 44.7143 48.2865 44.7143 48.323V51.8878Z" fill="#C8AF64"/>
<path d="M34.5613 30.8725H25.4413C24.9503 30.8719 24.4797 30.6765 24.1326 30.3292C23.7855 29.982 23.5903 29.5112 23.5898 29.0202V24.6008C23.5898 24.3735 23.6801 24.1555 23.8409 23.9947C24.0016 23.834 24.2197 23.7437 24.447 23.7437H35.5556C35.7829 23.7437 36.0009 23.834 36.1617 23.9947C36.3224 24.1555 36.4127 24.3735 36.4127 24.6008V29.0228C36.4116 29.5133 36.2161 29.9834 35.8691 30.3301C35.5221 30.6768 35.0518 30.8719 34.5613 30.8725ZM25.3041 25.4579V29.0228C25.3041 29.0593 25.3186 29.0942 25.3442 29.1201C25.3699 29.146 25.4048 29.1606 25.4413 29.1608H34.5613C34.5977 29.1606 34.6326 29.146 34.6583 29.1201C34.684 29.0942 34.6984 29.0593 34.6984 29.0228V25.4579H25.3041Z" fill="#C8AF64"/>
<path d="M33.7711 48.1848H26.2282C26.0009 48.1848 25.7829 48.0945 25.6221 47.9338C25.4614 47.773 25.3711 47.555 25.3711 47.3277V30.0134C25.3711 29.7861 25.4614 29.568 25.6221 29.4073C25.7829 29.2466 26.0009 29.1562 26.2282 29.1562H33.7711C33.9984 29.1562 34.2164 29.2466 34.3772 29.4073C34.5379 29.568 34.6282 29.7861 34.6282 30.0134V47.3277C34.6282 47.555 34.5379 47.773 34.3772 47.9338C34.2164 48.0945 33.9984 48.1848 33.7711 48.1848ZM27.0854 46.4705H32.914V30.8705H27.0854V46.4705Z" fill="#C8AF64"/>
<path d="M35.5556 53.6021H24.447C24.2197 53.6021 24.0016 53.5118 23.8409 53.3511C23.6801 53.1903 23.5898 52.9723 23.5898 52.745V48.323C23.5903 47.832 23.7855 47.3613 24.1326 47.014C24.4797 46.6668 24.9503 46.4714 25.4413 46.4707H34.5613C35.0523 46.4714 35.5229 46.6668 35.87 47.014C36.2171 47.3613 36.4123 47.832 36.4127 48.323V52.745C36.4127 52.9723 36.3224 53.1903 36.1617 53.3511C36.0009 53.5118 35.7829 53.6021 35.5556 53.6021ZM25.3033 51.8878H34.6984V48.323C34.6984 48.2865 34.684 48.2516 34.6583 48.2257C34.6326 48.1999 34.5977 48.1852 34.5613 48.185H25.4413C25.4048 48.1852 25.3699 48.1999 25.3442 48.2257C25.3186 48.2516 25.3041 48.2865 25.3041 48.323L25.3033 51.8878Z" fill="#C8AF64"/>
<path d="M16.0036 30.873H6.88268C6.39171 30.8723 5.92106 30.6769 5.57397 30.3297C5.22688 29.9824 5.0317 29.5117 5.03125 29.0207V24.6013C5.03125 24.374 5.12156 24.1559 5.2823 23.9952C5.44305 23.8344 5.66107 23.7441 5.88839 23.7441H16.9978C17.2252 23.7441 17.4432 23.8344 17.6039 23.9952C17.7647 24.1559 17.855 24.374 17.855 24.6013V29.0233C17.8538 29.5138 17.6584 29.9839 17.3114 30.3306C16.9643 30.6773 16.4941 30.8723 16.0036 30.873ZM6.74554 25.4584V29.0233C6.74554 29.0598 6.75996 29.0947 6.78565 29.1206C6.81135 29.1464 6.84623 29.1611 6.88268 29.1613H16.0036C16.04 29.1611 16.0749 29.1464 16.1006 29.1206C16.1263 29.0947 16.1407 29.0598 16.1407 29.0233V25.4584H6.74554Z" fill="#C8AF64"/>
<path d="M15.2592 48.1848H7.63058C7.40325 48.1848 7.18523 48.0945 7.02449 47.9338C6.86374 47.773 6.77344 47.555 6.77344 47.3277V30.0134C6.77344 29.7861 6.86374 29.568 7.02449 29.4073C7.18523 29.2466 7.40325 29.1562 7.63058 29.1562H15.2592C15.4865 29.1562 15.7045 29.2466 15.8652 29.4073C16.026 29.568 16.1163 29.7861 16.1163 30.0134V47.3277C16.1163 47.555 16.026 47.773 15.8652 47.9338C15.7045 48.0945 15.4865 48.1848 15.2592 48.1848ZM8.48772 46.4705H14.402V30.8705H8.48772V46.4705Z" fill="#C8AF64"/>
<path d="M16.9978 53.6021H5.88839C5.66107 53.6021 5.44305 53.5118 5.2823 53.3511C5.12156 53.1903 5.03125 52.9723 5.03125 52.745V48.323C5.0317 47.832 5.22688 47.3613 5.57397 47.014C5.92106 46.6668 6.39171 46.4714 6.88268 46.4707H16.0036C16.4945 46.4714 16.9652 46.6668 17.3123 47.014C17.6593 47.3613 17.8545 47.832 17.855 48.323V52.745C17.855 52.9723 17.7647 53.1903 17.6039 53.3511C17.4432 53.5118 17.2252 53.6021 16.9978 53.6021ZM6.74554 51.8878H16.1407V48.323C16.1407 48.2865 16.1263 48.2516 16.1006 48.2257C16.0749 48.1999 16.04 48.1852 16.0036 48.185H6.88268C6.84623 48.1852 6.81135 48.1999 6.78565 48.2257C6.75996 48.2516 6.74554 48.2865 6.74554 48.323V51.8878Z" fill="#C8AF64"/>
<path d="M59.1429 59.9997H0.857143C0.629815 59.9997 0.411797 59.9094 0.251051 59.7487C0.0903059 59.5879 0 59.3699 0 59.1426V52.7448C0 52.5175 0.0903059 52.2995 0.251051 52.1387C0.411797 51.978 0.629815 51.8877 0.857143 51.8877H59.1429C59.3702 51.8877 59.5882 51.978 59.749 52.1387C59.9097 52.2995 60 52.5175 60 52.7448V59.1426C60 59.3699 59.9097 59.5879 59.749 59.7487C59.5882 59.9094 59.3702 59.9997 59.1429 59.9997ZM1.71429 58.2854H58.2857V53.602H1.71429V58.2854Z" fill="#C8AF64"/>
</svg>
